# Blender v2.80 (sub 75) OBJ File: ''
# www.blender.org
o Cube_Cube.001
v 0.648184 0.154206 -1.117529
v 0.648184 -0.154206 -1.117529
v 1.118714 0.154206 -0.641814
v 1.118714 -0.154206 -0.641814
v 0.000000 0.168234 -0.539702
v 0.000000 -0.151495 -0.486005
v 0.000000 0.151495 -0.486005
v 0.000000 0.168234 -0.539702
v 0.000000 0.168234 -0.539702
v -0.648184 0.154206 -1.117529
v -0.648184 -0.154206 -1.117529
v -1.118714 0.154206 -0.641814
v -1.118714 -0.154206 -0.641814
v 0.480709 -0.151495 0.000000
v 0.480942 0.151495 0.000000
v 0.533821 0.168234 0.000000
v 0.533821 0.168234 0.000000
v 0.533821 -0.168234 0.000000
v 0.533821 0.168234 0.000000
v 0.533821 -0.168234 0.000000
v 0.648184 0.154206 1.117529
v 0.648184 -0.154206 1.117529
v 1.118714 0.154206 0.641814
v 1.118714 -0.154206 0.641814
v 0.000000 0.168234 0.539702
v -0.480709 -0.151495 0.000000
v -0.480942 0.151495 0.000000
v 0.000000 -0.151495 0.486005
v 0.000000 0.151495 0.486005
v -0.533821 0.168234 0.000000
v 0.000000 0.168234 0.539702
v -0.533821 0.168234 0.000000
v -0.533821 -0.168234 0.000000
v 0.000000 0.168234 0.539702
v -0.533821 0.168234 0.000000
v -0.533821 -0.168234 0.000000
v -0.648184 0.154206 1.117529
v -0.648184 -0.154206 1.117529
v -1.118714 0.154206 0.641814
v -1.118714 -0.154206 0.641814
vt 0.000000 0.000000
vt 0.000000 0.000000
vt 0.000000 0.000000
vt 0.000000 0.000000
vt 0.000000 0.000000
vt 0.000000 0.000000
vt 0.000000 0.000000
vt 0.000000 0.000000
vt 0.000000 0.000000
vt 0.000000 0.000000
vt 0.000000 0.000000
vt 0.000000 0.000000
vt 0.000000 0.000000
vt 0.000000 0.000000
vt 0.000000 0.000000
vt 0.000000 0.000000
vt 0.000000 0.000000
vt 0.000000 0.000000
vt 0.000000 0.000000
vt 0.000000 0.000000
vt 0.000000 0.000000
vt 0.000000 0.000000
vt 0.000000 0.000000
vt 0.000000 0.000000
vn 0.0000 0.9016 -0.4325
vn 0.0071 0.5787 -0.8155
vn 0.0071 -0.5787 -0.8155
vn 0.0000 -0.9016 -0.4325
vn 0.8155 0.5787 0.0014
vn 0.8154 -0.5788 0.0014
vn 0.4277 0.9039 0.0000
vn 0.4273 -0.9041 0.0000
vn -0.0071 -0.5787 -0.8155
vn -0.0071 0.5787 -0.8155
vn -0.8154 -0.5788 0.0014
vn -0.8155 0.5787 0.0014
vn -0.4277 0.9039 0.0000
vn -0.4273 -0.9041 0.0000
vn 0.0000 0.9016 0.4325
vn 0.0000 -0.9016 0.4325
vn 0.0071 -0.5787 0.8155
vn 0.0071 0.5787 0.8155
vn 0.8154 -0.5788 -0.0014
vn 0.8155 0.5787 -0.0014
vn -0.0071 0.5787 0.8155
vn -0.0071 -0.5787 0.8155
vn -0.8155 0.5787 -0.0014
vn -0.8154 -0.5788 -0.0014
s 1
f 7/1/1 1/2/2 2/3/3 6/4/4
f 1/2/2 3/5/5 4/6/6 2/3/3
f 15/7/7 3/5/5 1/2/2 7/1/1
f 14/8/8 4/6/6 3/5/5 15/7/7
f 6/4/4 2/3/3 4/6/6 14/8/8
f 7/1/1 6/4/4 11/9/9 10/10/10
f 10/10/10 11/9/9 13/11/11 12/12/12
f 27/13/13 7/1/1 10/10/10 12/12/12
f 26/14/14 27/13/13 12/12/12 13/11/11
f 6/4/4 26/14/14 13/11/11 11/9/9
f 15/7/7 7/1/1 27/13/13 29/15/15
f 29/15/15 28/16/16 22/17/17 21/18/18
f 21/18/18 22/17/17 24/19/19 23/20/20
f 15/7/7 29/15/15 21/18/18 23/20/20
f 14/8/8 15/7/7 23/20/20 24/19/19
f 28/16/16 14/8/8 24/19/19 22/17/17
f 14/8/8 28/16/16 26/14/14 6/4/4
f 29/15/15 37/21/21 38/22/22 28/16/16
f 37/21/21 39/23/23 40/24/24 38/22/22
f 27/13/13 39/23/23 37/21/21 29/15/15
f 26/14/14 40/24/24 39/23/23 27/13/13
f 28/16/16 38/22/22 40/24/24 26/14/14
l 8 9
l 19 17
l 5 8
l 17 16
l 18 20
l 35 32
l 32 30
l 33 36
l 31 34
l 25 31
